<mxfile host="app.diagrams.net" agent="Mozilla/5.0 (Macintosh; Intel Mac OS X 10_15_7) AppleWebKit/537.36 (KHTML, like Gecko) Chrome/138.0.0.0 Safari/537.36" version="28.0.6">
  <diagram id="prtHgNgQTEPvFCAcTncT" name="Page-1">
    <mxGraphModel dx="946" dy="610" grid="1" gridSize="10" guides="1" tooltips="1" connect="1" arrows="1" fold="1" page="1" pageScale="1" pageWidth="827" pageHeight="1169" math="0" shadow="0" adaptiveColors="auto">
      <root>
        <mxCell id="0" />
        <mxCell id="1" parent="0" />
        <mxCell id="dNxyNK7c78bLwvsdeMH5-19" value="Introduction" style="swimlane;html=1;childLayout=stackLayout;resizeParent=1;resizeParentMax=0;horizontal=0;startSize=20;horizontalStack=0;" parent="1" vertex="1">
          <mxGeometry x="120" y="120" width="1660" height="330" as="geometry">
            <mxRectangle x="120" y="120" width="40" height="90" as="alternateBounds" />
          </mxGeometry>
        </mxCell>
        <mxCell id="dNxyNK7c78bLwvsdeMH5-27" value="" style="edgeStyle=orthogonalEdgeStyle;rounded=0;orthogonalLoop=1;jettySize=auto;html=1;endArrow=classic;endFill=1;" parent="dNxyNK7c78bLwvsdeMH5-19" source="dNxyNK7c78bLwvsdeMH5-24" target="dNxyNK7c78bLwvsdeMH5-26" edge="1">
          <mxGeometry relative="1" as="geometry" />
        </mxCell>
        <mxCell id="dNxyNK7c78bLwvsdeMH5-20" value="User" style="swimlane;html=1;startSize=20;horizontal=0;" parent="dNxyNK7c78bLwvsdeMH5-19" vertex="1">
          <mxGeometry x="20" width="1640" height="130" as="geometry" />
        </mxCell>
        <mxCell id="dNxyNK7c78bLwvsdeMH5-25" value="" style="edgeStyle=orthogonalEdgeStyle;rounded=0;orthogonalLoop=1;jettySize=auto;html=1;" parent="dNxyNK7c78bLwvsdeMH5-20" source="dNxyNK7c78bLwvsdeMH5-23" target="dNxyNK7c78bLwvsdeMH5-24" edge="1">
          <mxGeometry relative="1" as="geometry" />
        </mxCell>
        <mxCell id="dNxyNK7c78bLwvsdeMH5-23" value="開始" style="ellipse;whiteSpace=wrap;html=1;" parent="dNxyNK7c78bLwvsdeMH5-20" vertex="1">
          <mxGeometry x="40" y="50" width="40" height="40" as="geometry" />
        </mxCell>
        <mxCell id="dNxyNK7c78bLwvsdeMH5-24" value="アプリを開く" style="rounded=0;whiteSpace=wrap;html=1;fontFamily=Helvetica;fontSize=12;fontColor=#000000;align=center;" parent="dNxyNK7c78bLwvsdeMH5-20" vertex="1">
          <mxGeometry x="120" y="40" width="80" height="60" as="geometry" />
        </mxCell>
        <mxCell id="biMVT6F2zO9Z8U_iaa_f-39" style="edgeStyle=orthogonalEdgeStyle;rounded=0;orthogonalLoop=1;jettySize=auto;html=1;exitX=0.5;exitY=0;exitDx=0;exitDy=0;entryX=0.5;entryY=0;entryDx=0;entryDy=0;" edge="1" parent="dNxyNK7c78bLwvsdeMH5-20" source="biMVT6F2zO9Z8U_iaa_f-8" target="biMVT6F2zO9Z8U_iaa_f-37">
          <mxGeometry relative="1" as="geometry" />
        </mxCell>
        <mxCell id="biMVT6F2zO9Z8U_iaa_f-8" value="アカウント&lt;div&gt;作成済み&lt;/div&gt;" style="rhombus;whiteSpace=wrap;html=1;" vertex="1" parent="dNxyNK7c78bLwvsdeMH5-20">
          <mxGeometry x="220" y="35" width="80" height="70" as="geometry" />
        </mxCell>
        <mxCell id="biMVT6F2zO9Z8U_iaa_f-28" value="No" style="text;strokeColor=none;align=center;fillColor=none;html=1;verticalAlign=middle;whiteSpace=wrap;rounded=0;" vertex="1" parent="dNxyNK7c78bLwvsdeMH5-20">
          <mxGeometry x="300" y="70" width="40" height="30" as="geometry" />
        </mxCell>
        <mxCell id="biMVT6F2zO9Z8U_iaa_f-29" value="メールアドレス，パスワード入力し登録ボタンを押下" style="rounded=0;whiteSpace=wrap;html=1;" vertex="1" parent="dNxyNK7c78bLwvsdeMH5-20">
          <mxGeometry x="390" y="40" width="120" height="60" as="geometry" />
        </mxCell>
        <mxCell id="biMVT6F2zO9Z8U_iaa_f-37" value="メールアドレス，パスワードを入力しログインボタンを押下" style="whiteSpace=wrap;html=1;" vertex="1" parent="dNxyNK7c78bLwvsdeMH5-20">
          <mxGeometry x="640" y="40" width="120" height="60" as="geometry" />
        </mxCell>
        <mxCell id="biMVT6F2zO9Z8U_iaa_f-42" value="Yes" style="text;strokeColor=none;align=center;fillColor=none;html=1;verticalAlign=middle;whiteSpace=wrap;rounded=0;" vertex="1" parent="dNxyNK7c78bLwvsdeMH5-20">
          <mxGeometry x="273.5" y="10" width="40" height="30" as="geometry" />
        </mxCell>
        <mxCell id="biMVT6F2zO9Z8U_iaa_f-64" value="終了" style="ellipse;whiteSpace=wrap;html=1;" vertex="1" parent="dNxyNK7c78bLwvsdeMH5-20">
          <mxGeometry x="1480" y="50" width="40" height="40" as="geometry" />
        </mxCell>
        <mxCell id="biMVT6F2zO9Z8U_iaa_f-48" value="「はい」&lt;br&gt;を選択" style="rhombus;whiteSpace=wrap;html=1;" vertex="1" parent="dNxyNK7c78bLwvsdeMH5-20">
          <mxGeometry x="830" y="30" width="80" height="80" as="geometry" />
        </mxCell>
        <mxCell id="dNxyNK7c78bLwvsdeMH5-21" value="App" style="swimlane;html=1;startSize=20;horizontal=0;" parent="dNxyNK7c78bLwvsdeMH5-19" vertex="1">
          <mxGeometry x="20" y="130" width="1640" height="110" as="geometry" />
        </mxCell>
        <mxCell id="dNxyNK7c78bLwvsdeMH5-26" value="ログイン画面を表示" style="rounded=0;whiteSpace=wrap;html=1;fontFamily=Helvetica;fontSize=12;fontColor=#000000;align=center;" parent="dNxyNK7c78bLwvsdeMH5-21" vertex="1">
          <mxGeometry x="120" y="30" width="80" height="60" as="geometry" />
        </mxCell>
        <mxCell id="biMVT6F2zO9Z8U_iaa_f-18" value="アカウント登録画面を表示" style="whiteSpace=wrap;html=1;" vertex="1" parent="dNxyNK7c78bLwvsdeMH5-21">
          <mxGeometry x="290" y="30" width="120" height="60" as="geometry" />
        </mxCell>
        <mxCell id="biMVT6F2zO9Z8U_iaa_f-22" value="入力を受け取りDBへ登録" style="whiteSpace=wrap;html=1;" vertex="1" parent="dNxyNK7c78bLwvsdeMH5-21">
          <mxGeometry x="480" y="30" width="120" height="60" as="geometry" />
        </mxCell>
        <mxCell id="biMVT6F2zO9Z8U_iaa_f-35" value="ログイン画面を表示" style="whiteSpace=wrap;html=1;" vertex="1" parent="dNxyNK7c78bLwvsdeMH5-21">
          <mxGeometry x="640" y="30" width="120" height="60" as="geometry" />
        </mxCell>
        <mxCell id="biMVT6F2zO9Z8U_iaa_f-53" style="edgeStyle=orthogonalEdgeStyle;rounded=0;orthogonalLoop=1;jettySize=auto;html=1;exitX=1;exitY=0.5;exitDx=0;exitDy=0;" edge="1" parent="dNxyNK7c78bLwvsdeMH5-21" source="biMVT6F2zO9Z8U_iaa_f-50" target="biMVT6F2zO9Z8U_iaa_f-52">
          <mxGeometry relative="1" as="geometry" />
        </mxCell>
        <mxCell id="biMVT6F2zO9Z8U_iaa_f-57" value="入力を受け取りDBへ登録" style="whiteSpace=wrap;html=1;" vertex="1" parent="dNxyNK7c78bLwvsdeMH5-21">
          <mxGeometry x="1290" y="30" width="120" height="60" as="geometry" />
        </mxCell>
        <mxCell id="biMVT6F2zO9Z8U_iaa_f-52" value="「目標を設定してください」というポップを表示" style="whiteSpace=wrap;html=1;" vertex="1" parent="dNxyNK7c78bLwvsdeMH5-21">
          <mxGeometry x="1130" y="30" width="120" height="60" as="geometry" />
        </mxCell>
        <mxCell id="biMVT6F2zO9Z8U_iaa_f-55" value="目標を入力" style="whiteSpace=wrap;html=1;" vertex="1" parent="dNxyNK7c78bLwvsdeMH5-21">
          <mxGeometry x="1130" y="-100" width="120" height="60" as="geometry" />
        </mxCell>
        <mxCell id="biMVT6F2zO9Z8U_iaa_f-56" style="edgeStyle=orthogonalEdgeStyle;rounded=0;orthogonalLoop=1;jettySize=auto;html=1;exitX=0.5;exitY=0;exitDx=0;exitDy=0;entryX=0.5;entryY=1;entryDx=0;entryDy=0;" edge="1" parent="dNxyNK7c78bLwvsdeMH5-21" source="biMVT6F2zO9Z8U_iaa_f-52" target="biMVT6F2zO9Z8U_iaa_f-55">
          <mxGeometry relative="1" as="geometry" />
        </mxCell>
        <mxCell id="biMVT6F2zO9Z8U_iaa_f-58" style="edgeStyle=orthogonalEdgeStyle;rounded=0;orthogonalLoop=1;jettySize=auto;html=1;exitX=1;exitY=0.5;exitDx=0;exitDy=0;" edge="1" parent="dNxyNK7c78bLwvsdeMH5-21" source="biMVT6F2zO9Z8U_iaa_f-55" target="biMVT6F2zO9Z8U_iaa_f-57">
          <mxGeometry relative="1" as="geometry" />
        </mxCell>
        <mxCell id="biMVT6F2zO9Z8U_iaa_f-50" value="チュートリアルを開始" style="whiteSpace=wrap;html=1;" vertex="1" parent="dNxyNK7c78bLwvsdeMH5-21">
          <mxGeometry x="970" y="30" width="120" height="60" as="geometry" />
        </mxCell>
        <mxCell id="biMVT6F2zO9Z8U_iaa_f-45" value="「チュートリアルを開始しますか」というポップを表示" style="whiteSpace=wrap;html=1;" vertex="1" parent="dNxyNK7c78bLwvsdeMH5-21">
          <mxGeometry x="810" y="30" width="120" height="60" as="geometry" />
        </mxCell>
        <mxCell id="biMVT6F2zO9Z8U_iaa_f-62" value="ホーム画面を表示" style="whiteSpace=wrap;html=1;" vertex="1" parent="dNxyNK7c78bLwvsdeMH5-21">
          <mxGeometry x="1440" y="30" width="120" height="60" as="geometry" />
        </mxCell>
        <mxCell id="dNxyNK7c78bLwvsdeMH5-22" value="DB" style="swimlane;html=1;startSize=20;horizontal=0;" parent="dNxyNK7c78bLwvsdeMH5-19" vertex="1">
          <mxGeometry x="20" y="240" width="1640" height="90" as="geometry" />
        </mxCell>
        <mxCell id="biMVT6F2zO9Z8U_iaa_f-33" value="&amp;nbsp;アカウントを&lt;br&gt;新規登録" style="whiteSpace=wrap;html=1;" vertex="1" parent="dNxyNK7c78bLwvsdeMH5-22">
          <mxGeometry x="480" y="20" width="120" height="60" as="geometry" />
        </mxCell>
        <mxCell id="biMVT6F2zO9Z8U_iaa_f-59" value="&amp;nbsp;DBへ目標を登録" style="whiteSpace=wrap;html=1;" vertex="1" parent="dNxyNK7c78bLwvsdeMH5-22">
          <mxGeometry x="1290" y="30" width="120" height="60" as="geometry" />
        </mxCell>
        <mxCell id="dNxyNK7c78bLwvsdeMH5-29" value="" style="edgeStyle=orthogonalEdgeStyle;rounded=0;orthogonalLoop=1;jettySize=auto;html=1;endArrow=classic;endFill=1;entryX=0.5;entryY=1;entryDx=0;entryDy=0;" parent="dNxyNK7c78bLwvsdeMH5-19" source="dNxyNK7c78bLwvsdeMH5-26" target="biMVT6F2zO9Z8U_iaa_f-8" edge="1">
          <mxGeometry relative="1" as="geometry">
            <mxPoint x="300" y="110" as="targetPoint" />
          </mxGeometry>
        </mxCell>
        <mxCell id="biMVT6F2zO9Z8U_iaa_f-12" style="edgeStyle=orthogonalEdgeStyle;rounded=0;orthogonalLoop=1;jettySize=auto;html=1;exitX=1;exitY=0.5;exitDx=0;exitDy=0;entryX=0.5;entryY=0;entryDx=0;entryDy=0;" edge="1" parent="dNxyNK7c78bLwvsdeMH5-19" source="biMVT6F2zO9Z8U_iaa_f-8" target="biMVT6F2zO9Z8U_iaa_f-18">
          <mxGeometry relative="1" as="geometry">
            <mxPoint x="390" y="60" as="targetPoint" />
          </mxGeometry>
        </mxCell>
        <mxCell id="biMVT6F2zO9Z8U_iaa_f-31" style="edgeStyle=orthogonalEdgeStyle;rounded=0;orthogonalLoop=1;jettySize=auto;html=1;exitX=1;exitY=0.5;exitDx=0;exitDy=0;entryX=0.5;entryY=1;entryDx=0;entryDy=0;" edge="1" parent="dNxyNK7c78bLwvsdeMH5-19" source="biMVT6F2zO9Z8U_iaa_f-18" target="biMVT6F2zO9Z8U_iaa_f-29">
          <mxGeometry relative="1" as="geometry" />
        </mxCell>
        <mxCell id="biMVT6F2zO9Z8U_iaa_f-32" style="edgeStyle=orthogonalEdgeStyle;rounded=0;orthogonalLoop=1;jettySize=auto;html=1;exitX=1;exitY=0.5;exitDx=0;exitDy=0;entryX=0.5;entryY=0;entryDx=0;entryDy=0;" edge="1" parent="dNxyNK7c78bLwvsdeMH5-19" source="biMVT6F2zO9Z8U_iaa_f-29" target="biMVT6F2zO9Z8U_iaa_f-22">
          <mxGeometry relative="1" as="geometry" />
        </mxCell>
        <mxCell id="biMVT6F2zO9Z8U_iaa_f-34" style="edgeStyle=orthogonalEdgeStyle;rounded=0;orthogonalLoop=1;jettySize=auto;html=1;exitX=0.5;exitY=1;exitDx=0;exitDy=0;entryX=0.5;entryY=0;entryDx=0;entryDy=0;" edge="1" parent="dNxyNK7c78bLwvsdeMH5-19" source="biMVT6F2zO9Z8U_iaa_f-22" target="biMVT6F2zO9Z8U_iaa_f-33">
          <mxGeometry relative="1" as="geometry" />
        </mxCell>
        <mxCell id="biMVT6F2zO9Z8U_iaa_f-36" style="edgeStyle=orthogonalEdgeStyle;rounded=0;orthogonalLoop=1;jettySize=auto;html=1;exitX=1;exitY=0.5;exitDx=0;exitDy=0;" edge="1" parent="dNxyNK7c78bLwvsdeMH5-19" source="biMVT6F2zO9Z8U_iaa_f-33" target="biMVT6F2zO9Z8U_iaa_f-35">
          <mxGeometry relative="1" as="geometry" />
        </mxCell>
        <mxCell id="biMVT6F2zO9Z8U_iaa_f-38" style="edgeStyle=orthogonalEdgeStyle;rounded=0;orthogonalLoop=1;jettySize=auto;html=1;exitX=0.5;exitY=0;exitDx=0;exitDy=0;entryX=0.5;entryY=1;entryDx=0;entryDy=0;" edge="1" parent="dNxyNK7c78bLwvsdeMH5-19" source="biMVT6F2zO9Z8U_iaa_f-35" target="biMVT6F2zO9Z8U_iaa_f-37">
          <mxGeometry relative="1" as="geometry" />
        </mxCell>
        <mxCell id="biMVT6F2zO9Z8U_iaa_f-61" style="edgeStyle=orthogonalEdgeStyle;rounded=0;orthogonalLoop=1;jettySize=auto;html=1;exitX=1;exitY=0.5;exitDx=0;exitDy=0;entryX=0;entryY=0.5;entryDx=0;entryDy=0;" edge="1" parent="dNxyNK7c78bLwvsdeMH5-19" source="biMVT6F2zO9Z8U_iaa_f-37" target="biMVT6F2zO9Z8U_iaa_f-45">
          <mxGeometry relative="1" as="geometry" />
        </mxCell>
        <mxCell id="biMVT6F2zO9Z8U_iaa_f-60" value="" style="edgeStyle=orthogonalEdgeStyle;rounded=0;orthogonalLoop=1;jettySize=auto;html=1;" edge="1" parent="dNxyNK7c78bLwvsdeMH5-19" source="biMVT6F2zO9Z8U_iaa_f-57" target="biMVT6F2zO9Z8U_iaa_f-59">
          <mxGeometry relative="1" as="geometry" />
        </mxCell>
        <mxCell id="biMVT6F2zO9Z8U_iaa_f-63" style="edgeStyle=orthogonalEdgeStyle;rounded=0;orthogonalLoop=1;jettySize=auto;html=1;exitX=1;exitY=0.5;exitDx=0;exitDy=0;entryX=0.5;entryY=1;entryDx=0;entryDy=0;" edge="1" parent="dNxyNK7c78bLwvsdeMH5-19" source="biMVT6F2zO9Z8U_iaa_f-59" target="biMVT6F2zO9Z8U_iaa_f-62">
          <mxGeometry relative="1" as="geometry" />
        </mxCell>
        <mxCell id="biMVT6F2zO9Z8U_iaa_f-65" style="edgeStyle=orthogonalEdgeStyle;rounded=0;orthogonalLoop=1;jettySize=auto;html=1;exitX=0.5;exitY=0;exitDx=0;exitDy=0;entryX=0.5;entryY=1;entryDx=0;entryDy=0;" edge="1" parent="dNxyNK7c78bLwvsdeMH5-19" source="biMVT6F2zO9Z8U_iaa_f-62" target="biMVT6F2zO9Z8U_iaa_f-64">
          <mxGeometry relative="1" as="geometry" />
        </mxCell>
        <mxCell id="biMVT6F2zO9Z8U_iaa_f-49" style="edgeStyle=orthogonalEdgeStyle;rounded=0;orthogonalLoop=1;jettySize=auto;html=1;entryX=0.5;entryY=1;entryDx=0;entryDy=0;" edge="1" parent="dNxyNK7c78bLwvsdeMH5-19" source="biMVT6F2zO9Z8U_iaa_f-45" target="biMVT6F2zO9Z8U_iaa_f-48">
          <mxGeometry relative="1" as="geometry" />
        </mxCell>
        <mxCell id="biMVT6F2zO9Z8U_iaa_f-51" style="edgeStyle=orthogonalEdgeStyle;rounded=0;orthogonalLoop=1;jettySize=auto;html=1;exitX=1;exitY=0.5;exitDx=0;exitDy=0;" edge="1" parent="dNxyNK7c78bLwvsdeMH5-19" source="biMVT6F2zO9Z8U_iaa_f-48" target="biMVT6F2zO9Z8U_iaa_f-50">
          <mxGeometry relative="1" as="geometry" />
        </mxCell>
        <mxCell id="biMVT6F2zO9Z8U_iaa_f-66" style="edgeStyle=orthogonalEdgeStyle;rounded=0;orthogonalLoop=1;jettySize=auto;html=1;exitX=0.5;exitY=0;exitDx=0;exitDy=0;entryX=0.5;entryY=0;entryDx=0;entryDy=0;" edge="1" parent="dNxyNK7c78bLwvsdeMH5-19" source="biMVT6F2zO9Z8U_iaa_f-48" target="biMVT6F2zO9Z8U_iaa_f-55">
          <mxGeometry relative="1" as="geometry" />
        </mxCell>
      </root>
    </mxGraphModel>
  </diagram>
</mxfile>
